<svg id="Layer_1" data-name="Layer 1" xmlns="http://www.w3.org/2000/svg" xmlns:xlink="http://www.w3.org/1999/xlink" viewBox="0 0 389.91 166.98"><defs><style>.cls-1,.cls-6{fill:none;}.cls-2{fill:#fff;}.cls-3{font-size:48px;font-family:Modern-Regular, "Modern No. 20";}.cls-4{clip-path:url(#clip-path);}.cls-5{fill:#231f20;}.cls-6{stroke:#000;stroke-miterlimit:10;}</style><clipPath id="clip-path" transform="translate(-329.89 -473.72)"><rect class="cls-1" width="1133.86" height="1133.86"/></clipPath></defs><title>mimosa2</title><rect x="58.89" width="60.26" height="16.47"/><rect x="80.34" y="15.83" width="17.23" height="14.3"/><rect x="75.11" y="22.98" width="27.7" height="7.15"/><polygon class="cls-2" points="103.7 109.15 78.64 81.05 125.79 38.43 178 94.34 106.51 166.98 100.89 161.62 168.3 94.09 125.4 48.38 88.77 81.32 109.06 104.17 103.7 109.15"/><polygon class="cls-2" points="74.39 84.81 99.15 112.6 52.34 155.89 0 99.92 65.87 33.45 70.58 38.25 10.05 100.94 52.85 145.87 89.78 112.38 69.11 89.87 74.39 84.81"/><text class="cls-3" transform="translate(198.11 94.67)">MIMOSA</text><g class="cls-4"><path class="cls-5" d="M547.91,597.26c0,1.79-.06,3.59-.11,5.42s-.11,3.69-.19,5.62-.16,4-.25,6.11l.21,0,2.66-.34c0-1.7.1-3.42.16-5.14s.1-3.39.14-5,.09-3.19.14-4.68.08-2.87.11-4.12.07-2.36.09-3.33,0-1.74.07-2.31c.42-.06.82-.1,1.18-.13s.74,0,1.14,0a9.25,9.25,0,0,1,2.22.26,4.64,4.64,0,0,1,1.83.91,4.28,4.28,0,0,1,1.23,1.72,6.91,6.91,0,0,1,.46,2.71c0,.41,0,.86-.08,1.36a6.51,6.51,0,0,1-.34,1.52,6.34,6.34,0,0,1-.74,1.5,4.94,4.94,0,0,1-1.29,1.29,6.66,6.66,0,0,1-2,.91,10.28,10.28,0,0,1-2.84.34.76.76,0,0,0,0,.17v.15c0,.32.06.53.19.62a1.11,1.11,0,0,0,.66.15,11.8,11.8,0,0,0,3.86-.6,8.36,8.36,0,0,0,3-1.74,7.67,7.67,0,0,0,1.94-2.76,9.41,9.41,0,0,0,.69-3.69,6.35,6.35,0,0,0-.61-2.95,5.18,5.18,0,0,0-1.68-1.88,6.92,6.92,0,0,0-2.49-1,14.57,14.57,0,0,0-3-.29c-.82,0-1.67,0-2.56.1s-1.77.17-2.65.28-1.74.23-2.57.37-1.6.26-2.31.39l.14,1a14,14,0,0,1,1.89-.17,3.58,3.58,0,0,1,.89.1,1.23,1.23,0,0,1,.55.32,1.14,1.14,0,0,1,.27.55,3.69,3.69,0,0,1,.08.81C548,593.65,547.94,595.48,547.91,597.26Z" transform="translate(-329.89 -473.72)"/><path class="cls-5" d="M570.56,603a3.81,3.81,0,0,1-1.34,1,9,9,0,0,1-2.13.71,21.3,21.3,0,0,1-2.86.39,11.37,11.37,0,0,1,.23-1.36,8.9,8.9,0,0,1,.41-1.36,7.62,7.62,0,0,1,.61-1.25,5.06,5.06,0,0,1,.83-1,3.67,3.67,0,0,1,1.07-.7,3.31,3.31,0,0,1,1.32-.26,2.33,2.33,0,0,1,1.66.72,2.22,2.22,0,0,1,.48.78,2.56,2.56,0,0,1,.18,1A2.25,2.25,0,0,1,570.56,603Zm.42,9.26a4.76,4.76,0,0,1-2.07.5,3.79,3.79,0,0,1-1.87-.47,4.48,4.48,0,0,1-1.5-1.32,6.28,6.28,0,0,1-1-2,9,9,0,0,1-.37-2.62v-.19a34.26,34.26,0,0,0,3.85-.55,14.35,14.35,0,0,0,3.1-1,6.05,6.05,0,0,0,2.06-1.45,3,3,0,0,0,.74-2,2.92,2.92,0,0,0-.33-1.4,3.24,3.24,0,0,0-.91-1,4.28,4.28,0,0,0-1.32-.65,5.48,5.48,0,0,0-1.58-.22,6.94,6.94,0,0,0-2.35.39,7.52,7.52,0,0,0-2,1.09,8.67,8.67,0,0,0-1.64,1.62,11.27,11.27,0,0,0-1.22,2,11.83,11.83,0,0,0-.76,2.29,11,11,0,0,0-.26,2.41,8.22,8.22,0,0,0,.45,2.75,6.92,6.92,0,0,0,1.27,2.24,5.81,5.81,0,0,0,1.93,1.51,5.46,5.46,0,0,0,2.47.55,6.32,6.32,0,0,0,1.59-.21,6.7,6.7,0,0,0,1.59-.64,8.77,8.77,0,0,0,1.51-1.08,9.14,9.14,0,0,0,1.35-1.52.16.16,0,0,0,0-.09.27.27,0,0,0-.06-.16l-.16-.16a1.37,1.37,0,0,0-.2-.13l-.17-.1A7.63,7.63,0,0,1,571,612.23Z" transform="translate(-329.89 -473.72)"/><path class="cls-5" d="M580,614.09c0-.48.12-1.09.22-1.8s.26-1.48.43-2.29.39-1.65.63-2.51.52-1.67.82-2.45a15,15,0,0,1,1-2.13,6.08,6.08,0,0,1,1.19-1.54,2.93,2.93,0,0,1,.86-.55,2.55,2.55,0,0,1,1-.19,2.43,2.43,0,0,1,.89.17,3.66,3.66,0,0,1,.89.57H588a2.15,2.15,0,0,0,.69-.83,2.19,2.19,0,0,0,.22-1,1.72,1.72,0,0,0-.15-.72,2,2,0,0,0-.43-.58,1.92,1.92,0,0,0-.64-.37,2.32,2.32,0,0,0-.8-.14,3.5,3.5,0,0,0-2.23.81,8,8,0,0,0-1.86,2.2,17.92,17.92,0,0,0-1.53,3.31,42.78,42.78,0,0,0-1.22,4.11l-.11,0c.07-.66.13-1.33.19-2s.12-1.31.16-1.93.1-1.2.13-1.74.07-1,.1-1.42,0-.74.06-1,0-.41,0-.46a2.12,2.12,0,0,0-.32-1.29,1.21,1.21,0,0,0-1.06-.43,8.53,8.53,0,0,0-1.56.27,30.76,30.76,0,0,0-3,1l.17.81.71-.17.56-.12.45-.07.39,0a1.49,1.49,0,0,1,.61.1.74.74,0,0,1,.34.29,1.27,1.27,0,0,1,.15.51q0,.3,0,.72c0,.33,0,.8,0,1.38s0,1.24-.06,2-.06,1.53-.09,2.38-.07,1.71-.12,2.57-.09,1.72-.14,2.56-.11,1.61-.17,2.32h.18Z" transform="translate(-329.89 -473.72)"/><path class="cls-5" d="M594.52,595.33c0-1.12.13-2.19.24-3.22a23.37,23.37,0,0,1,.51-2.87,9,9,0,0,1,.92-2.31,4.57,4.57,0,0,1,1.45-1.54,3.8,3.8,0,0,1,2.13-.56,3.1,3.1,0,0,1,.85.11,2.19,2.19,0,0,1,.79.36,1.73,1.73,0,0,1,.57.63,1.83,1.83,0,0,1,.22.93,2.73,2.73,0,0,1-.1.76,7.48,7.48,0,0,1-.32.87l0,.12a2.7,2.7,0,0,0,1.09.26,2,2,0,0,0,.74-.14,1.75,1.75,0,0,0,1-1,2.17,2.17,0,0,0,.15-.84,2.49,2.49,0,0,0-.31-1.19,3.16,3.16,0,0,0-.9-1.05,4.72,4.72,0,0,0-1.43-.75,6.09,6.09,0,0,0-1.94-.29,6.71,6.71,0,0,0-1.52.18,6.05,6.05,0,0,0-1.52.55,7.71,7.71,0,0,0-1.47,1,8,8,0,0,0-1.33,1.39,10.81,10.81,0,0,0-1.09,1.87,13.06,13.06,0,0,0-.79,2.36c-.15.68-.29,1.33-.39,2s-.19,1.25-.26,1.88-.13,1.26-.18,1.9-.08,1.31-.11,2a10.11,10.11,0,0,0-1.45.15,5.6,5.6,0,0,0-1.13.29,2.4,2.4,0,0,0-.72.41.67.67,0,0,0-.26.5.41.41,0,0,0,.05.21,5.7,5.7,0,0,1,1.5-.29c.6,0,1.25-.07,1.95-.08q0,3.39-.08,6.46c0,2.06-.12,4-.25,5.74s-.3,3.38-.53,4.83a17.38,17.38,0,0,1-1,3.7,6.39,6.39,0,0,1-1.52,2.37,3.08,3.08,0,0,1-2.19.83,4,4,0,0,1-1-.12,3.41,3.41,0,0,1-.93-.39,3.75,3.75,0,0,1-.84-.67,4.43,4.43,0,0,1-.72-1,1.71,1.71,0,0,0-.65.12,1.69,1.69,0,0,0-.51.34,1.41,1.41,0,0,0-.35.46,1.31,1.31,0,0,0-.12.53,1.52,1.52,0,0,0,.31.92,2.75,2.75,0,0,0,.85.76,4.62,4.62,0,0,0,1.27.52,6.68,6.68,0,0,0,1.6.19,6.15,6.15,0,0,0,2-.34,6,6,0,0,0,1.94-1.11,9.45,9.45,0,0,0,1.77-2.06,15.07,15.07,0,0,0,1.49-3.21,23.12,23.12,0,0,0,.73-2.72q.32-1.5.54-3.15t.39-3.39c.11-1.16.19-2.3.27-3.42s.13-2.21.17-3.26.08-2,.11-2.9c.77.05,1.47.1,2.1.16s1.22.08,1.73.08a3.66,3.66,0,0,0,1.19-.15.65.65,0,0,0,.41-.66,2.39,2.39,0,0,0-.13-.67l-.78.07c-.31,0-.63,0-1,0h-.62l-.82,0h-1l-1.08,0C594.42,597.57,594.47,596.45,594.52,595.33Z" transform="translate(-329.89 -473.72)"/><path class="cls-5" d="M614.1,598l-2.38.29a28.91,28.91,0,0,1-.82,5.32,27.72,27.72,0,0,1-1.55,4.44,10.87,10.87,0,0,1-1.91,3,2.82,2.82,0,0,1-2,1,1.43,1.43,0,0,1-1-.33,2.39,2.39,0,0,1-.63-.94,5.91,5.91,0,0,1-.36-1.45,15.58,15.58,0,0,1-.1-1.88c0-.64,0-1.33.07-2.06s.12-1.49.2-2.28.19-1.61.31-2.45.24-1.68.37-2.52a2.76,2.76,0,0,0-.65-.26,2.73,2.73,0,0,0-.72-.09,2.69,2.69,0,0,0-.4,0,1,1,0,0,0-.67.43,1.28,1.28,0,0,0-.19.5c-.1.57-.2,1.22-.3,1.94s-.19,1.48-.27,2.28-.15,1.61-.19,2.44-.08,1.63-.08,2.42a19.93,19.93,0,0,0,.17,2.63,7.8,7.8,0,0,0,.56,2.18,3.69,3.69,0,0,0,1.06,1.48,2.55,2.55,0,0,0,1.68.55,3.9,3.9,0,0,0,1.8-.5,6.3,6.3,0,0,0,1.88-1.67,14.71,14.71,0,0,0,1.83-3.08,29.25,29.25,0,0,0,1.66-4.72l.12,0c-.07.51-.13,1-.18,1.39s-.09.81-.13,1.18-.06.71-.07,1,0,.65,0,1a9.09,9.09,0,0,0,.29,2.52,4.67,4.67,0,0,0,.77,1.63,2.7,2.7,0,0,0,1.09.87,3.27,3.27,0,0,0,1.26.26,3.86,3.86,0,0,0,1-.13,4.65,4.65,0,0,0,1-.34,5.22,5.22,0,0,0,.88-.52,5,5,0,0,0,.74-.63l-.37-.52-.32.21a3.91,3.91,0,0,1-.41.2,3.39,3.39,0,0,1-.48.17,2.22,2.22,0,0,1-.51.06,1.65,1.65,0,0,1-.87-.25,2.08,2.08,0,0,1-.77-.92,6.78,6.78,0,0,1-.55-1.83,16.32,16.32,0,0,1-.22-3c0-.65,0-1.35,0-2.11s0-1.55.1-2.35.09-1.59.15-2.39.12-1.55.19-2.26Z" transform="translate(-329.89 -473.72)"/><path class="cls-5" d="M617.52,600c.48-.13.91-.23,1.28-.31a5.42,5.42,0,0,1,1-.11,1.5,1.5,0,0,1,.5.08.83.83,0,0,1,.36.26,1.28,1.28,0,0,1,.2.5,3.46,3.46,0,0,1,.07.78c0,.33,0,.8,0,1.38s0,1.24,0,2-.06,1.53-.09,2.38-.07,1.71-.12,2.57-.09,1.72-.15,2.56-.1,1.61-.16,2.32h.18l2.34-.29a26.5,26.5,0,0,1,.42-3.31,28.22,28.22,0,0,1,.8-3.14,23,23,0,0,1,1.07-2.78,14.31,14.31,0,0,1,1.23-2.23,6.7,6.7,0,0,1,1.29-1.48,2,2,0,0,1,1.26-.53,1.28,1.28,0,0,1,1.1.64,3.36,3.36,0,0,1,.44,1.89c0,.42,0,.94-.06,1.57s-.07,1.39-.13,2.3-.12,2-.19,3.18-.15,2.6-.23,4.17H630l2.35-.29a23.57,23.57,0,0,1,.43-3.32,30,30,0,0,1,.81-3.17,23.51,23.51,0,0,1,1.09-2.81,15.46,15.46,0,0,1,1.24-2.25,7.13,7.13,0,0,1,1.29-1.5,1.94,1.94,0,0,1,1.22-.55,1.39,1.39,0,0,1,1.18.61,3.27,3.27,0,0,1,.43,1.84c0,.29,0,.71-.07,1.26s-.11,1.19-.17,1.87-.11,1.42-.16,2.18-.07,1.5-.07,2.19,0,1.12,0,1.62a5.85,5.85,0,0,0,.22,1.31,2,2,0,0,0,.52.89,1.35,1.35,0,0,0,1,.33,4.71,4.71,0,0,0,1.19-.18,8.91,8.91,0,0,0,1.35-.45,12,12,0,0,0,1.3-.62,7.24,7.24,0,0,0,1-.66l-.21-.59a7.5,7.5,0,0,1-1.27.46,4.74,4.74,0,0,1-1.21.16,1.78,1.78,0,0,1-.69-.12.89.89,0,0,1-.45-.43,2.85,2.85,0,0,1-.24-.87,11.23,11.23,0,0,1-.07-1.43c0-.33,0-.72,0-1.17s.06-.94.09-1.44.08-1,.13-1.53.09-1,.13-1.48.07-.88.1-1.26,0-.68,0-.89a7.12,7.12,0,0,0-.25-2,4,4,0,0,0-.66-1.34,2.42,2.42,0,0,0-.94-.76,2.58,2.58,0,0,0-1.09-.24,3.76,3.76,0,0,0-1.8.52A6.13,6.13,0,0,0,636,600a15.35,15.35,0,0,0-1.82,3.15,30.79,30.79,0,0,0-1.68,4.86l-.07,0c0-.34.08-.74.13-1.2s.1-.95.14-1.46.08-1,.11-1.57.05-1,.05-1.49a7.66,7.66,0,0,0-.16-1.59,4.93,4.93,0,0,0-.49-1.4,3,3,0,0,0-.88-1,2.18,2.18,0,0,0-1.31-.38,3.75,3.75,0,0,0-1.81.51,6.24,6.24,0,0,0-1.85,1.7,15.71,15.71,0,0,0-1.81,3.13,32,32,0,0,0-1.67,4.79h-.07c.1-1.07.2-2.09.28-3s.15-1.79.21-2.53.09-1.36.13-1.85,0-.81,0-1a1.89,1.89,0,0,0-.37-1.33,1.31,1.31,0,0,0-1-.39,4.15,4.15,0,0,0-.74.09c-.32.06-.68.15-1.09.26s-.87.24-1.36.4-1,.32-1.53.51Z" transform="translate(-329.89 -473.72)"/><path class="cls-5" d="M656.07,603a3.68,3.68,0,0,1-1.33,1,9,9,0,0,1-2.13.71,21.52,21.52,0,0,1-2.86.39,11.37,11.37,0,0,1,.23-1.36,8.9,8.9,0,0,1,.41-1.36,7.62,7.62,0,0,1,.61-1.25,5.06,5.06,0,0,1,.83-1,3.67,3.67,0,0,1,1.07-.7,3.27,3.27,0,0,1,1.32-.26,2.33,2.33,0,0,1,1.66.72,2.6,2.6,0,0,1,.66,1.74A2.2,2.2,0,0,1,656.07,603Zm.43,9.26a4.77,4.77,0,0,1-2.08.5,3.78,3.78,0,0,1-1.86-.47,4.48,4.48,0,0,1-1.5-1.32,6.28,6.28,0,0,1-1-2,9,9,0,0,1-.37-2.62v-.19a34.6,34.6,0,0,0,3.85-.55,14.35,14.35,0,0,0,3.1-1,6.05,6.05,0,0,0,2.06-1.45,3,3,0,0,0,.74-2,2.92,2.92,0,0,0-.33-1.4,3.24,3.24,0,0,0-.91-1,4.28,4.28,0,0,0-1.32-.65,5.48,5.48,0,0,0-1.58-.22,6.94,6.94,0,0,0-2.35.39,7.52,7.52,0,0,0-2,1.09,8.39,8.39,0,0,0-1.64,1.62,10.85,10.85,0,0,0-2,4.32,11,11,0,0,0-.26,2.41,8.22,8.22,0,0,0,.45,2.75,6.9,6.9,0,0,0,1.26,2.24,6,6,0,0,0,1.94,1.51,5.46,5.46,0,0,0,2.47.55,6.32,6.32,0,0,0,1.59-.21,6.7,6.7,0,0,0,1.59-.64,8.34,8.34,0,0,0,1.5-1.08,8.75,8.75,0,0,0,1.36-1.52.16.16,0,0,0,0-.09.23.23,0,0,0-.07-.16.75.75,0,0,0-.15-.16,1.37,1.37,0,0,0-.2-.13l-.17-.1A7.63,7.63,0,0,1,656.5,612.23Z" transform="translate(-329.89 -473.72)"/></g><rect class="cls-2" x="68.81" y="4.97" width="40.34" height="7.15"/><rect class="cls-2" x="85.17" y="16.72" width="6.26" height="6.26"/><rect class="cls-6" x="85.17" y="16.72" width="6.26" height="6.26"/></svg>